<mxfile host="Electron" modified="2024-05-16T18:07:12.341Z" agent="Mozilla/5.0 (X11; Linux x86_64) AppleWebKit/537.36 (KHTML, like Gecko) draw.io/24.4.0 Chrome/120.0.6099.109 Electron/28.1.0 Safari/537.36" etag="O8_ZlZwvihtbEJmf30lG" version="24.4.0" type="device">
  <diagram name="Seite-1" id="jAyIroa_MxWYKGvGyV5c">
    <mxGraphModel dx="922" dy="851" grid="1" gridSize="10" guides="1" tooltips="1" connect="1" arrows="1" fold="1" page="1" pageScale="1" pageWidth="827" pageHeight="1169" math="0" shadow="0">
      <root>
        <mxCell id="0" />
        <mxCell id="1" parent="0" />
        <mxCell id="1cJYUdWsvefQAHc1jqrl-4" value="" style="rounded=0;whiteSpace=wrap;html=1;fillColor=#dae8fc;strokeColor=#6c8ebf;" vertex="1" parent="1">
          <mxGeometry x="40" y="40" width="720" height="440" as="geometry" />
        </mxCell>
        <mxCell id="1cJYUdWsvefQAHc1jqrl-7" value="" style="rounded=0;whiteSpace=wrap;html=1;dashed=1;" vertex="1" parent="1">
          <mxGeometry x="80" y="80" width="640" height="360" as="geometry" />
        </mxCell>
        <mxCell id="1cJYUdWsvefQAHc1jqrl-35" value="" style="group;" vertex="1" connectable="0" parent="1">
          <mxGeometry x="230" y="150" width="410" height="260" as="geometry" />
        </mxCell>
        <mxCell id="1cJYUdWsvefQAHc1jqrl-25" value="" style="rounded=0;whiteSpace=wrap;html=1;fillColor=#f5f5f5;strokeWidth=2;fontColor=#333333;strokeColor=#666666;" vertex="1" parent="1cJYUdWsvefQAHc1jqrl-35">
          <mxGeometry x="30" width="380" height="260" as="geometry" />
        </mxCell>
        <mxCell id="1cJYUdWsvefQAHc1jqrl-51" value="" style="rounded=0;whiteSpace=wrap;html=1;fillColor=none;" vertex="1" parent="1cJYUdWsvefQAHc1jqrl-35">
          <mxGeometry x="40" y="24" width="280" height="196" as="geometry" />
        </mxCell>
        <mxCell id="1cJYUdWsvefQAHc1jqrl-11" value="FubaApp" style="aspect=fixed;sketch=0;html=1;dashed=0;whitespace=wrap;verticalLabelPosition=bottom;verticalAlign=top;fillColor=#2875E2;strokeColor=#ffffff;points=[[0.005,0.63,0],[0.1,0.2,0],[0.9,0.2,0],[0.5,0,0],[0.995,0.63,0],[0.72,0.99,0],[0.5,1,0],[0.28,0.99,0]];shape=mxgraph.kubernetes.icon2;kubernetesLabel=1;prIcon=pod" vertex="1" parent="1cJYUdWsvefQAHc1jqrl-35">
          <mxGeometry x="80.00035664260317" y="30" width="50" height="48" as="geometry" />
        </mxCell>
        <mxCell id="1cJYUdWsvefQAHc1jqrl-14" value="" style="aspect=fixed;sketch=0;html=1;dashed=0;whitespace=wrap;verticalLabelPosition=bottom;verticalAlign=top;fillColor=#2875E2;strokeColor=#ffffff;points=[[0.005,0.63,0],[0.1,0.2,0],[0.9,0.2,0],[0.5,0,0],[0.995,0.63,0],[0.72,0.99,0],[0.5,1,0],[0.28,0.99,0]];shape=mxgraph.kubernetes.icon2;kubernetesLabel=1;prIcon=deploy" vertex="1" parent="1cJYUdWsvefQAHc1jqrl-35">
          <mxGeometry x="380.00394138562655" y="-20" width="50" height="48" as="geometry" />
        </mxCell>
        <mxCell id="1cJYUdWsvefQAHc1jqrl-23" value="" style="aspect=fixed;sketch=0;html=1;dashed=0;whitespace=wrap;verticalLabelPosition=bottom;verticalAlign=top;fillColor=#2875E2;strokeColor=#ffffff;points=[[0.005,0.63,0],[0.1,0.2,0],[0.9,0.2,0],[0.5,0,0],[0.995,0.63,0],[0.72,0.99,0],[0.5,1,0],[0.28,0.99,0]];shape=mxgraph.kubernetes.icon2;kubernetesLabel=1;prIcon=rs" vertex="1" parent="1cJYUdWsvefQAHc1jqrl-35">
          <mxGeometry x="289.9956814998384" width="50" height="48" as="geometry" />
        </mxCell>
        <mxCell id="1cJYUdWsvefQAHc1jqrl-24" value="FubaApp" style="aspect=fixed;sketch=0;html=1;dashed=0;whitespace=wrap;verticalLabelPosition=bottom;verticalAlign=top;fillColor=#2875E2;strokeColor=#ffffff;points=[[0.005,0.63,0],[0.1,0.2,0],[0.9,0.2,0],[0.5,0,0],[0.995,0.63,0],[0.72,0.99,0],[0.5,1,0],[0.28,0.99,0]];shape=mxgraph.kubernetes.icon2;kubernetesLabel=1;prIcon=pod" vertex="1" parent="1cJYUdWsvefQAHc1jqrl-35">
          <mxGeometry x="80.00035664260317" y="140" width="50" height="48" as="geometry" />
        </mxCell>
        <mxCell id="1cJYUdWsvefQAHc1jqrl-5" value="" style="image;sketch=0;aspect=fixed;html=1;points=[];align=center;fontSize=12;image=img/lib/mscae/Kubernetes.svg;" vertex="1" parent="1">
          <mxGeometry x="730" y="20" width="50" height="48" as="geometry" />
        </mxCell>
        <mxCell id="1cJYUdWsvefQAHc1jqrl-8" value="" style="aspect=fixed;sketch=0;html=1;dashed=0;whitespace=wrap;verticalLabelPosition=bottom;verticalAlign=top;fillColor=#2875E2;strokeColor=#ffffff;points=[[0.005,0.63,0],[0.1,0.2,0],[0.9,0.2,0],[0.5,0,0],[0.995,0.63,0],[0.72,0.99,0],[0.5,1,0],[0.28,0.99,0]];shape=mxgraph.kubernetes.icon2;kubernetesLabel=1;prIcon=ns" vertex="1" parent="1">
          <mxGeometry x="690" y="60" width="50" height="48" as="geometry" />
        </mxCell>
        <mxCell id="1cJYUdWsvefQAHc1jqrl-9" value="" style="aspect=fixed;sketch=0;html=1;dashed=0;whitespace=wrap;verticalLabelPosition=bottom;verticalAlign=top;fillColor=#2875E2;strokeColor=#ffffff;points=[[0.005,0.63,0],[0.1,0.2,0],[0.9,0.2,0],[0.5,0,0],[0.995,0.63,0],[0.72,0.99,0],[0.5,1,0],[0.28,0.99,0]];shape=mxgraph.kubernetes.icon2;kubernetesLabel=1;prIcon=ing" vertex="1" parent="1">
          <mxGeometry x="14" y="236" width="50" height="48" as="geometry" />
        </mxCell>
        <mxCell id="1cJYUdWsvefQAHc1jqrl-12" value="" style="aspect=fixed;sketch=0;html=1;dashed=0;whitespace=wrap;verticalLabelPosition=bottom;verticalAlign=top;fillColor=#2875E2;strokeColor=#ffffff;points=[[0.005,0.63,0],[0.1,0.2,0],[0.9,0.2,0],[0.5,0,0],[0.995,0.63,0],[0.72,0.99,0],[0.5,1,0],[0.28,0.99,0]];shape=mxgraph.kubernetes.icon2;kubernetesLabel=1;prIcon=secret" vertex="1" parent="1">
          <mxGeometry x="349" y="80" width="50" height="48" as="geometry" />
        </mxCell>
        <mxCell id="1cJYUdWsvefQAHc1jqrl-13" value="" style="aspect=fixed;sketch=0;html=1;dashed=0;whitespace=wrap;verticalLabelPosition=bottom;verticalAlign=top;fillColor=#2875E2;strokeColor=#ffffff;points=[[0.005,0.63,0],[0.1,0.2,0],[0.9,0.2,0],[0.5,0,0],[0.995,0.63,0],[0.72,0.99,0],[0.5,1,0],[0.28,0.99,0]];shape=mxgraph.kubernetes.icon2;kubernetesLabel=1;prIcon=cm" vertex="1" parent="1">
          <mxGeometry x="418" y="80" width="50" height="48" as="geometry" />
        </mxCell>
        <mxCell id="1cJYUdWsvefQAHc1jqrl-30" value="" style="endArrow=classic;html=1;rounded=0;exitX=0.995;exitY=0.63;exitDx=0;exitDy=0;exitPerimeter=0;entryX=0.005;entryY=0.63;entryDx=0;entryDy=0;entryPerimeter=0;" edge="1" parent="1" source="1cJYUdWsvefQAHc1jqrl-9" target="1cJYUdWsvefQAHc1jqrl-10">
          <mxGeometry width="50" height="50" relative="1" as="geometry">
            <mxPoint x="400" y="340" as="sourcePoint" />
            <mxPoint x="450" y="290" as="targetPoint" />
          </mxGeometry>
        </mxCell>
        <mxCell id="1cJYUdWsvefQAHc1jqrl-10" value="FubaAppSvc" style="aspect=fixed;sketch=0;html=1;dashed=0;whitespace=wrap;verticalLabelPosition=bottom;verticalAlign=top;fillColor=#2875E2;strokeColor=#ffffff;points=[[0.005,0.63,0],[0.1,0.2,0],[0.9,0.2,0],[0.5,0,0],[0.995,0.63,0],[0.72,0.99,0],[0.5,1,0],[0.28,0.99,0]];shape=mxgraph.kubernetes.icon2;kubernetesLabel=1;prIcon=svc" vertex="1" parent="1">
          <mxGeometry x="150" y="236" width="50" height="48" as="geometry" />
        </mxCell>
        <mxCell id="1cJYUdWsvefQAHc1jqrl-45" value="" style="endArrow=classic;startArrow=none;html=1;rounded=0;exitX=0.995;exitY=0.63;exitDx=0;exitDy=0;exitPerimeter=0;endFill=1;startFill=0;" edge="1" parent="1" target="1cJYUdWsvefQAHc1jqrl-18">
          <mxGeometry width="50" height="50" relative="1" as="geometry">
            <mxPoint x="360" y="318" as="sourcePoint" />
            <mxPoint x="410" y="318" as="targetPoint" />
            <Array as="points">
              <mxPoint x="450" y="318" />
              <mxPoint x="450" y="260" />
            </Array>
          </mxGeometry>
        </mxCell>
        <mxCell id="1cJYUdWsvefQAHc1jqrl-46" value="" style="endArrow=classic;html=1;rounded=0;exitX=0.482;exitY=-0.006;exitDx=0;exitDy=0;exitPerimeter=0;" edge="1" parent="1" source="1cJYUdWsvefQAHc1jqrl-25" target="1cJYUdWsvefQAHc1jqrl-13">
          <mxGeometry width="50" height="50" relative="1" as="geometry">
            <mxPoint x="400" y="340" as="sourcePoint" />
            <mxPoint x="450" y="290" as="targetPoint" />
          </mxGeometry>
        </mxCell>
        <mxCell id="1cJYUdWsvefQAHc1jqrl-47" value="" style="endArrow=classic;html=1;rounded=0;exitX=0.3;exitY=-0.006;exitDx=0;exitDy=0;exitPerimeter=0;entryX=0.5;entryY=1;entryDx=0;entryDy=0;entryPerimeter=0;" edge="1" parent="1" source="1cJYUdWsvefQAHc1jqrl-25" target="1cJYUdWsvefQAHc1jqrl-12">
          <mxGeometry width="50" height="50" relative="1" as="geometry">
            <mxPoint x="400" y="340" as="sourcePoint" />
            <mxPoint x="450" y="290" as="targetPoint" />
          </mxGeometry>
        </mxCell>
        <mxCell id="1cJYUdWsvefQAHc1jqrl-37" value="" style="endArrow=classic;html=1;rounded=0;exitX=0.995;exitY=0.63;exitDx=0;exitDy=0;exitPerimeter=0;entryX=0.005;entryY=0.63;entryDx=0;entryDy=0;entryPerimeter=0;" edge="1" parent="1" source="1cJYUdWsvefQAHc1jqrl-10" target="1cJYUdWsvefQAHc1jqrl-11">
          <mxGeometry width="50" height="50" relative="1" as="geometry">
            <mxPoint x="400" y="340" as="sourcePoint" />
            <mxPoint x="280" y="210" as="targetPoint" />
            <Array as="points">
              <mxPoint x="240" y="210" />
            </Array>
          </mxGeometry>
        </mxCell>
        <mxCell id="1cJYUdWsvefQAHc1jqrl-38" value="" style="endArrow=classic;html=1;rounded=0;entryX=0.005;entryY=0.63;entryDx=0;entryDy=0;entryPerimeter=0;exitX=0.995;exitY=0.63;exitDx=0;exitDy=0;exitPerimeter=0;" edge="1" parent="1" source="1cJYUdWsvefQAHc1jqrl-10" target="1cJYUdWsvefQAHc1jqrl-24">
          <mxGeometry width="50" height="50" relative="1" as="geometry">
            <mxPoint x="237" y="283" as="sourcePoint" />
            <mxPoint x="280" y="320" as="targetPoint" />
            <Array as="points">
              <mxPoint x="237" y="320" />
            </Array>
          </mxGeometry>
        </mxCell>
        <mxCell id="1cJYUdWsvefQAHc1jqrl-69" value="" style="aspect=fixed;sketch=0;html=1;dashed=0;whitespace=wrap;verticalLabelPosition=bottom;verticalAlign=top;fillColor=#2875E2;strokeColor=#ffffff;points=[[0.005,0.63,0],[0.1,0.2,0],[0.9,0.2,0],[0.5,0,0],[0.995,0.63,0],[0.72,0.99,0],[0.5,1,0],[0.28,0.99,0]];shape=mxgraph.kubernetes.icon2;kubernetesLabel=1;prIcon=pv" vertex="1" parent="1">
          <mxGeometry x="150" y="390" width="50" height="48" as="geometry" />
        </mxCell>
        <mxCell id="1cJYUdWsvefQAHc1jqrl-18" value="FubaDB" style="aspect=fixed;sketch=0;html=1;dashed=0;whitespace=wrap;verticalLabelPosition=bottom;verticalAlign=top;fillColor=#2875E2;strokeColor=#ffffff;points=[[0.005,0.63,0],[0.1,0.2,0],[0.9,0.2,0],[0.5,0,0],[0.995,0.63,0],[0.72,0.99,0],[0.5,1,0],[0.28,0.99,0]];shape=mxgraph.kubernetes.icon2;kubernetesLabel=1;prIcon=pod" vertex="1" parent="1">
          <mxGeometry x="659.999538842797" y="236" width="50" height="48" as="geometry" />
        </mxCell>
        <mxCell id="1cJYUdWsvefQAHc1jqrl-77" value="" style="aspect=fixed;sketch=0;html=1;dashed=0;whitespace=wrap;verticalLabelPosition=bottom;verticalAlign=top;fillColor=#2875E2;strokeColor=#ffffff;points=[[0.005,0.63,0],[0.1,0.2,0],[0.9,0.2,0],[0.5,0,0],[0.995,0.63,0],[0.72,0.99,0],[0.5,1,0],[0.28,0.99,0]];shape=mxgraph.kubernetes.icon2;kubernetesLabel=1;prIcon=pvc" vertex="1" parent="1">
          <mxGeometry x="660" y="390" width="50" height="48" as="geometry" />
        </mxCell>
        <mxCell id="1cJYUdWsvefQAHc1jqrl-78" value="" style="endArrow=classic;html=1;rounded=0;exitX=0.5;exitY=1;exitDx=0;exitDy=0;exitPerimeter=0;entryX=0.5;entryY=0;entryDx=0;entryDy=0;entryPerimeter=0;" edge="1" parent="1" source="1cJYUdWsvefQAHc1jqrl-18" target="1cJYUdWsvefQAHc1jqrl-77">
          <mxGeometry width="50" height="50" relative="1" as="geometry">
            <mxPoint x="400" y="370" as="sourcePoint" />
            <mxPoint x="450" y="320" as="targetPoint" />
          </mxGeometry>
        </mxCell>
        <mxCell id="1cJYUdWsvefQAHc1jqrl-79" value="" style="endArrow=classic;html=1;rounded=0;exitX=0.005;exitY=0.63;exitDx=0;exitDy=0;exitPerimeter=0;entryX=0.995;entryY=0.63;entryDx=0;entryDy=0;entryPerimeter=0;" edge="1" parent="1" source="1cJYUdWsvefQAHc1jqrl-77" target="1cJYUdWsvefQAHc1jqrl-69">
          <mxGeometry width="50" height="50" relative="1" as="geometry">
            <mxPoint x="400" y="370" as="sourcePoint" />
            <mxPoint x="450" y="320" as="targetPoint" />
          </mxGeometry>
        </mxCell>
        <mxCell id="1cJYUdWsvefQAHc1jqrl-82" value="" style="endArrow=none;html=1;rounded=0;entryX=0.995;entryY=0.63;entryDx=0;entryDy=0;entryPerimeter=0;endFill=0;" edge="1" parent="1" target="1cJYUdWsvefQAHc1jqrl-11">
          <mxGeometry width="50" height="50" relative="1" as="geometry">
            <mxPoint x="450" y="260" as="sourcePoint" />
            <mxPoint x="450" y="320" as="targetPoint" />
            <Array as="points">
              <mxPoint x="450" y="210" />
            </Array>
          </mxGeometry>
        </mxCell>
      </root>
    </mxGraphModel>
  </diagram>
</mxfile>
